<svg width="58" height="58" viewBox="0 0 58 58" fill="none" xmlns="http://www.w3.org/2000/svg">
<path d="M42.0021 34.6549C41.2972 34.2927 37.7857 32.5726 37.1325 32.3397C36.4794 32.094 36.0009 31.9776 35.5288 32.7019C35.0502 33.4197 33.6922 35.017 33.2654 35.502C32.8515 35.9806 32.4312 36.0388 31.7263 35.6831C27.5358 33.5878 24.7874 31.9453 22.026 27.2051C21.2953 25.9441 22.7568 26.0346 24.1213 23.3121C24.3541 22.8335 24.2377 22.4261 24.0566 22.064C23.8756 21.7018 22.4529 18.1968 21.8579 16.7676C21.2824 15.3773 20.6874 15.5713 20.2541 15.5454C19.8403 15.5195 19.3682 15.5195 18.8896 15.5195C18.4111 15.5195 17.6415 15.7006 16.9884 16.4055C16.3352 17.1233 14.4922 18.8499 14.4922 22.355C14.4922 25.86 17.0466 29.2551 17.3958 29.7336C17.7579 30.2122 22.4205 37.4033 29.5793 40.5009C34.1061 42.4539 35.878 42.622 38.1414 42.2857C39.5188 42.0788 42.3577 40.5656 42.9462 38.8906C43.5347 37.2222 43.5347 35.793 43.3601 35.4956C43.1855 35.1787 42.707 34.9976 42.0021 34.6549Z" fill="white"/>
<path d="M55.6927 17.745C54.2312 14.2723 52.1359 11.1553 49.4651 8.47801C46.7943 5.80721 43.6773 3.70549 40.1982 2.25046C36.6414 0.756619 32.8648 0 28.9718 0H28.8424C24.9235 0.0194005 21.1275 0.79542 17.5578 2.32159C14.111 3.79603 11.0198 5.89128 8.37491 8.56208C5.72998 11.2329 3.65412 14.337 2.21849 17.7967C0.731118 21.3793 -0.0190336 25.1883 0.000366881 29.1072C0.0197674 33.5952 1.09326 38.0508 3.10444 42.0344V51.864C3.10444 53.5065 4.43661 54.8387 6.07918 54.8387H15.9152C19.8988 56.8499 24.3544 57.9234 28.8424 57.9428H28.9782C32.8518 57.9428 36.6091 57.1926 40.1464 55.7246C43.6062 54.2825 46.7167 52.2132 49.3811 49.5682C52.0519 46.9233 54.1536 43.8322 55.6215 40.3853C57.1477 36.8156 57.9237 33.0196 57.9431 29.1007C57.9625 25.1624 57.1995 21.3405 55.6927 17.745ZM45.9213 46.0697C41.3881 50.5577 35.3739 53.028 28.9718 53.028H28.8618C24.9623 53.0086 21.0887 52.0386 17.6677 50.2149L17.1245 49.9239H8.01923V40.8186L7.72823 40.2754C5.90458 36.8544 4.93456 32.9808 4.91516 29.0813C4.88929 22.6339 7.35315 16.5809 11.8735 12.0218C16.3873 7.46272 22.4209 4.94066 28.8683 4.91479H28.9782C32.2116 4.91479 35.348 5.54207 38.3034 6.7837C41.1876 7.993 43.7743 9.73257 45.9989 11.9572C48.217 14.1753 49.9631 16.7685 51.1724 19.6527C52.4269 22.6404 53.0542 25.8091 53.0413 29.0813C53.0025 35.5223 50.4739 41.5558 45.9213 46.0697Z" fill="white"/>
</svg>
